<svg width="31" height="55" viewBox="0 0 31 55" fill="none" xmlns="http://www.w3.org/2000/svg">
<path d="M1.09875 52.5667L0.665453 53.468L2.46796 54.3345L2.90125 53.4333L1.09875 52.5667ZM27.9437 0.669102C27.7609 0.147931 27.1903 -0.126416 26.6691 0.0563308L18.1761 3.0344C17.6549 3.21715 17.3806 3.78779 17.5633 4.30896C17.7461 4.83014 18.3167 5.10448 18.8379 4.92173L26.3872 2.27456L29.0344 9.8239C29.2171 10.3451 29.7878 10.6194 30.309 10.4367C30.8301 10.2539 31.1045 9.68328 30.9217 9.16211L27.9437 0.669102ZM2.90125 53.4333L27.9013 1.43329L26.0987 0.566704L1.09875 52.5667L2.90125 53.4333Z" fill="#0CD4E1"/>
</svg>
