<svg width="1521" height="252" viewBox="0 0 1521 252" fill="none" xmlns="http://www.w3.org/2000/svg">
<path d="M400.4 144H411.8L455.3 250.5H440.9L428.3 219.3H383.6L371.15 250.5H356.75L400.4 144ZM425.3 208.8L406.1 159.6L386.3 208.8H425.3Z" fill="white"/>
<path d="M479.264 168.9V250.5H465.764V144H477.164L542.264 227.25V144.15H555.764V250.5H543.464L479.264 168.9Z" fill="white"/>
<path d="M577.443 250.5V144H614.343C625.743 144 635.243 146.4 642.843 151.2C650.543 155.9 656.293 162.3 660.093 170.4C663.893 178.4 665.793 187.3 665.793 197.1C665.793 207.9 663.693 217.3 659.493 225.3C655.293 233.3 649.343 239.5 641.643 243.9C633.943 248.3 624.843 250.5 614.343 250.5H577.443ZM652.143 197.1C652.143 189.1 650.643 182 647.643 175.8C644.743 169.6 640.493 164.75 634.893 161.25C629.293 157.75 622.443 156 614.343 156H590.943V238.5H614.343C622.543 238.5 629.443 236.7 635.043 233.1C640.643 229.4 644.893 224.45 647.793 218.25C650.693 211.95 652.143 204.9 652.143 197.1Z" fill="white"/>
<path d="M681.066 250.5V144H726.666C731.366 144 735.666 145 739.566 147C743.466 148.9 746.866 151.5 749.766 154.8C752.666 158 754.916 161.65 756.516 165.75C758.116 169.75 758.916 173.85 758.916 178.05C758.916 182.95 757.966 187.6 756.066 192C754.266 196.4 751.666 200.15 748.266 203.25C744.966 206.35 741.066 208.5 736.566 209.7L762.366 250.5H747.066L722.766 212.25H694.566V250.5H681.066ZM694.566 200.25H726.816C730.516 200.25 733.716 199.25 736.416 197.25C739.216 195.15 741.366 192.4 742.866 189C744.466 185.6 745.266 181.95 745.266 178.05C745.266 174.05 744.366 170.4 742.566 167.1C740.766 163.7 738.416 161 735.516 159C732.616 157 729.416 156 725.916 156H694.566V200.25Z" fill="white"/>
<path d="M848.2 238.5V250.5H775.9V144H846.85V156H789.4V190.5H839.35V201.75H789.4V238.5H848.2Z" fill="white"/>
<path d="M935.271 238.5V250.5H862.971V144H933.921V156H876.471V190.5H926.421V201.75H876.471V238.5H935.271Z" fill="white"/>
<path d="M982.441 144H993.841L1037.34 250.5H1022.94L1010.34 219.3H965.641L953.191 250.5H938.791L982.441 144ZM1007.34 208.8L988.141 159.6L968.341 208.8H1007.34Z" fill="white"/>
<path d="M1129.55 166.35C1128.35 164.95 1126.75 163.6 1124.75 162.3C1122.75 161 1120.5 159.85 1118 158.85C1115.5 157.75 1112.75 156.9 1109.75 156.3C1106.85 155.6 1103.8 155.25 1100.6 155.25C1092.4 155.25 1086.35 156.8 1082.45 159.9C1078.55 163 1076.6 167.25 1076.6 172.65C1076.6 176.45 1077.6 179.45 1079.6 181.65C1081.6 183.85 1084.65 185.65 1088.75 187.05C1092.95 188.45 1098.25 189.9 1104.65 191.4C1112.05 193 1118.45 194.95 1123.85 197.25C1129.25 199.55 1133.4 202.65 1136.3 206.55C1139.2 210.35 1140.65 215.45 1140.65 221.85C1140.65 226.95 1139.65 231.4 1137.65 235.2C1135.75 238.9 1133.05 242 1129.55 244.5C1126.05 246.9 1121.95 248.7 1117.25 249.9C1112.55 251 1107.45 251.55 1101.95 251.55C1096.55 251.55 1091.25 251 1086.05 249.9C1080.95 248.7 1076.1 247 1071.5 244.8C1066.9 242.6 1062.6 239.85 1058.6 236.55L1065.05 225.15C1066.65 226.85 1068.7 228.55 1071.2 230.25C1073.8 231.85 1076.7 233.35 1079.9 234.75C1083.2 236.15 1086.75 237.3 1090.55 238.2C1094.35 239 1098.25 239.4 1102.25 239.4C1109.85 239.4 1115.75 238.05 1119.95 235.35C1124.15 232.55 1126.25 228.5 1126.25 223.2C1126.25 219.2 1125.05 216 1122.65 213.6C1120.35 211.2 1116.9 209.2 1112.3 207.6C1107.7 206 1102.1 204.4 1095.5 202.8C1088.3 201 1082.25 199.05 1077.35 196.95C1072.45 194.75 1068.75 191.9 1066.25 188.4C1063.85 184.9 1062.65 180.35 1062.65 174.75C1062.65 167.95 1064.3 162.2 1067.6 157.5C1070.9 152.8 1075.45 149.25 1081.25 146.85C1087.05 144.45 1093.6 143.25 1100.9 143.25C1105.7 143.25 1110.15 143.75 1114.25 144.75C1118.45 145.75 1122.35 147.15 1125.95 148.95C1129.55 150.75 1132.85 152.9 1135.85 155.4L1129.55 166.35Z" fill="white"/>
<path d="M1226.96 238.5V250.5H1154.66V144H1225.61V156H1168.16V190.5H1218.11V201.75H1168.16V238.5H1226.96Z" fill="white"/>
<path d="M1327.38 144V250.5H1313.88V202.05H1255.23V250.5H1241.73V144H1255.23V190.05H1313.88V144H1327.38Z" fill="white"/>
<path d="M1421.46 238.5V250.5H1349.16V144H1420.11V156H1362.66V190.5H1412.61V201.75H1362.66V238.5H1421.46Z" fill="white"/>
<path d="M1436.23 250.5V144H1481.83C1486.53 144 1490.83 145 1494.73 147C1498.63 148.9 1502.03 151.5 1504.93 154.8C1507.83 158 1510.08 161.65 1511.68 165.75C1513.28 169.75 1514.08 173.85 1514.08 178.05C1514.08 182.95 1513.13 187.6 1511.23 192C1509.43 196.4 1506.83 200.15 1503.43 203.25C1500.13 206.35 1496.23 208.5 1491.73 209.7L1517.53 250.5H1502.23L1477.93 212.25H1449.73V250.5H1436.23ZM1449.73 200.25H1481.98C1485.68 200.25 1488.88 199.25 1491.58 197.25C1494.38 195.15 1496.53 192.4 1498.03 189C1499.63 185.6 1500.43 181.95 1500.43 178.05C1500.43 174.05 1499.53 170.4 1497.73 167.1C1495.93 163.7 1493.58 161 1490.68 159C1487.78 157 1484.58 156 1481.08 156H1449.73V200.25Z" fill="white"/>
<path d="M85.65 3V109.5H72.15V61.05H13.5V109.5H0V3H13.5V49.05H72.15V3H85.65Z" fill="white"/>
<path d="M179.732 97.5V109.5H107.432V3H178.382V15H120.932V49.5H170.882V60.75H120.932V97.5H179.732Z" fill="white"/>
<path d="M194.502 109.5V3H208.002V97.5H267.402V109.5H194.502Z" fill="white"/>
<path d="M278.35 109.5V3H291.85V97.5H351.25V109.5H278.35Z" fill="white"/>
<path d="M402.175 110.25C394.675 110.25 387.875 108.75 381.775 105.75C375.675 102.75 370.375 98.7 365.875 93.6C361.475 88.4 358.075 82.6 355.675 76.2C353.275 69.7 352.075 63.05 352.075 56.25C352.075 49.15 353.325 42.4 355.825 36C358.425 29.5 361.975 23.75 366.475 18.75C371.075 13.65 376.425 9.65 382.525 6.75C388.625 3.75 395.275 2.25 402.475 2.25C409.975 2.25 416.775 3.8 422.875 6.9C428.975 10 434.225 14.15 438.625 19.35C443.025 24.55 446.425 30.35 448.825 36.75C451.225 43.15 452.425 49.7 452.425 56.4C452.425 63.5 451.175 70.3 448.675 76.8C446.175 83.2 442.625 88.95 438.025 94.05C433.525 99.05 428.225 103 422.125 105.9C416.025 108.8 409.375 110.25 402.175 110.25ZM365.725 56.25C365.725 61.65 366.575 66.9 368.275 72C370.075 77 372.575 81.45 375.775 85.35C378.975 89.25 382.825 92.35 387.325 94.65C391.825 96.95 396.825 98.1 402.325 98.1C408.025 98.1 413.125 96.9 417.625 94.5C422.125 92.1 425.925 88.9 429.025 84.9C432.225 80.9 434.625 76.4 436.225 71.4C437.925 66.4 438.775 61.35 438.775 56.25C438.775 50.85 437.875 45.65 436.075 40.65C434.375 35.65 431.875 31.2 428.575 27.3C425.375 23.3 421.525 20.2 417.025 18C412.625 15.7 407.725 14.55 402.325 14.55C396.625 14.55 391.525 15.75 387.025 18.15C382.525 20.45 378.675 23.6 375.475 27.6C372.375 31.6 369.975 36.1 368.275 41.1C366.575 46 365.725 51.05 365.725 56.25Z" fill="white"/>
<path d="M506 109.5V3H519.5V109.5H506Z" fill="white"/>
<path d="M530.472 34.35L533.472 17.1H528.972V0H541.422V17.1L536.922 34.35H530.472Z" fill="white"/>
<path d="M650.952 109.5V28.2L615.852 90.75H607.602L572.352 28.2V109.5H558.852V3H573.102L611.652 72.15L650.352 3H664.452V109.5H650.952Z" fill="white"/>
<path d="M1234.3 110C1232.13 110 1230.18 109.433 1228.45 108.3C1226.75 107.167 1225.4 105.767 1224.4 104.1V120.15H1221V83.45H1224.05V88.5C1225.08 86.8667 1226.47 85.55 1228.2 84.55C1229.93 83.5167 1231.78 83 1233.75 83C1235.55 83 1237.2 83.3833 1238.7 84.15C1240.2 84.8833 1241.5 85.8833 1242.6 87.15C1243.7 88.4167 1244.55 89.8667 1245.15 91.5C1245.78 93.1 1246.1 94.7667 1246.1 96.5C1246.1 98.9333 1245.6 101.183 1244.6 103.25C1243.63 105.283 1242.27 106.917 1240.5 108.15C1238.73 109.383 1236.67 110 1234.3 110ZM1233.35 107C1234.78 107 1236.07 106.717 1237.2 106.15C1238.33 105.55 1239.3 104.75 1240.1 103.75C1240.93 102.75 1241.57 101.633 1242 100.4C1242.43 99.1333 1242.65 97.8333 1242.65 96.5C1242.65 95.1 1242.4 93.7667 1241.9 92.5C1241.43 91.2333 1240.75 90.1167 1239.85 89.15C1238.95 88.1833 1237.92 87.4167 1236.75 86.85C1235.58 86.2833 1234.32 86 1232.95 86C1232.08 86 1231.18 86.1667 1230.25 86.5C1229.32 86.8333 1228.42 87.3167 1227.55 87.95C1226.72 88.55 1226.02 89.2333 1225.45 90C1224.88 90.7667 1224.53 91.5833 1224.4 92.45V100.45C1224.93 101.683 1225.65 102.8 1226.55 103.8C1227.45 104.767 1228.48 105.55 1229.65 106.15C1230.85 106.717 1232.08 107 1233.35 107Z" fill="#10737A"/>
<path d="M1272.51 109.5H1269.11V94.95C1269.11 92.0167 1268.59 89.8167 1267.56 88.35C1266.53 86.85 1265.04 86.1 1263.11 86.1C1261.84 86.1 1260.58 86.4333 1259.31 87.1C1258.08 87.7333 1256.98 88.6167 1256.01 89.75C1255.08 90.85 1254.41 92.1167 1254.01 93.55V109.5H1250.61V73H1254.01V89.35C1255.04 87.4167 1256.48 85.8833 1258.31 84.75C1260.18 83.5833 1262.16 83 1264.26 83C1265.76 83 1267.03 83.2667 1268.06 83.8C1269.13 84.3333 1269.98 85.1167 1270.61 86.15C1271.28 87.15 1271.76 88.3333 1272.06 89.7C1272.36 91.0333 1272.51 92.55 1272.51 94.25V109.5Z" fill="#10737A"/>
<path d="M1289.61 110C1287.74 110 1286.01 109.65 1284.41 108.95C1282.84 108.217 1281.48 107.233 1280.31 106C1279.18 104.733 1278.29 103.3 1277.66 101.7C1277.03 100.067 1276.71 98.35 1276.71 96.55C1276.71 94.6833 1277.03 92.95 1277.66 91.35C1278.29 89.7167 1279.19 88.2833 1280.36 87.05C1281.53 85.7833 1282.89 84.8 1284.46 84.1C1286.06 83.3667 1287.79 83 1289.66 83C1291.53 83 1293.24 83.3667 1294.81 84.1C1296.38 84.8 1297.74 85.7833 1298.91 87.05C1300.08 88.2833 1300.98 89.7167 1301.61 91.35C1302.24 92.95 1302.56 94.6833 1302.56 96.55C1302.56 98.35 1302.24 100.067 1301.61 101.7C1300.98 103.3 1300.08 104.733 1298.91 106C1297.78 107.233 1296.41 108.217 1294.81 108.95C1293.24 109.65 1291.51 110 1289.61 110ZM1280.16 96.6C1280.16 98.5333 1280.58 100.3 1281.41 101.9C1282.28 103.467 1283.43 104.717 1284.86 105.65C1286.29 106.55 1287.88 107 1289.61 107C1291.34 107 1292.93 106.533 1294.36 105.6C1295.79 104.667 1296.94 103.4 1297.81 101.8C1298.68 100.167 1299.11 98.4 1299.11 96.5C1299.11 94.5667 1298.68 92.8 1297.81 91.2C1296.94 89.6 1295.79 88.3333 1294.36 87.4C1292.93 86.4667 1291.34 86 1289.61 86C1287.88 86 1286.29 86.4833 1284.86 87.45C1283.46 88.4167 1282.33 89.7 1281.46 91.3C1280.59 92.8667 1280.16 94.6333 1280.16 96.6Z" fill="#10737A"/>
<path d="M1319.11 108.25C1318.84 108.35 1318.42 108.533 1317.86 108.8C1317.29 109.067 1316.61 109.3 1315.81 109.5C1315.01 109.7 1314.14 109.8 1313.21 109.8C1312.24 109.8 1311.32 109.617 1310.46 109.25C1309.62 108.883 1308.96 108.333 1308.46 107.6C1307.96 106.833 1307.71 105.9 1307.71 104.8V86.15H1304.11V83.45H1307.71V74.65H1311.11V83.45H1317.11V86.15H1311.11V103.85C1311.17 104.783 1311.51 105.483 1312.11 105.95C1312.74 106.417 1313.46 106.65 1314.26 106.65C1315.19 106.65 1316.04 106.5 1316.81 106.2C1317.57 105.867 1318.04 105.633 1318.21 105.5L1319.11 108.25Z" fill="#10737A"/>
<path d="M1332.76 110C1330.9 110 1329.16 109.65 1327.56 108.95C1326 108.217 1324.63 107.233 1323.46 106C1322.33 104.733 1321.45 103.3 1320.81 101.7C1320.18 100.067 1319.86 98.35 1319.86 96.55C1319.86 94.6833 1320.18 92.95 1320.81 91.35C1321.45 89.7167 1322.35 88.2833 1323.51 87.05C1324.68 85.7833 1326.05 84.8 1327.61 84.1C1329.21 83.3667 1330.95 83 1332.81 83C1334.68 83 1336.4 83.3667 1337.96 84.1C1339.53 84.8 1340.9 85.7833 1342.06 87.05C1343.23 88.2833 1344.13 89.7167 1344.76 91.35C1345.4 92.95 1345.71 94.6833 1345.71 96.55C1345.71 98.35 1345.4 100.067 1344.76 101.7C1344.13 103.3 1343.23 104.733 1342.06 106C1340.93 107.233 1339.56 108.217 1337.96 108.95C1336.4 109.65 1334.66 110 1332.76 110ZM1323.31 96.6C1323.31 98.5333 1323.73 100.3 1324.56 101.9C1325.43 103.467 1326.58 104.717 1328.01 105.65C1329.45 106.55 1331.03 107 1332.76 107C1334.5 107 1336.08 106.533 1337.51 105.6C1338.95 104.667 1340.1 103.4 1340.96 101.8C1341.83 100.167 1342.26 98.4 1342.26 96.5C1342.26 94.5667 1341.83 92.8 1340.96 91.2C1340.1 89.6 1338.95 88.3333 1337.51 87.4C1336.08 86.4667 1334.5 86 1332.76 86C1331.03 86 1329.45 86.4833 1328.01 87.45C1326.61 88.4167 1325.48 89.7 1324.61 91.3C1323.75 92.8667 1323.31 94.6333 1323.31 96.6Z" fill="#10737A"/>
<path d="M1360.6 109.85C1358.83 109.85 1357.2 109.483 1355.7 108.75C1354.2 108.017 1352.9 107.033 1351.8 105.8C1350.73 104.533 1349.9 103.1 1349.3 101.5C1348.7 99.9 1348.4 98.25 1348.4 96.55C1348.4 94.7167 1348.68 93 1349.25 91.4C1349.85 89.7667 1350.68 88.3167 1351.75 87.05C1352.85 85.7833 1354.13 84.8 1355.6 84.1C1357.07 83.3667 1358.7 83 1360.5 83C1362.73 83 1364.67 83.5667 1366.3 84.7C1367.97 85.8333 1369.37 87.2333 1370.5 88.9V83.45H1373.55V109.6C1373.55 112 1372.97 114.017 1371.8 115.65C1370.67 117.317 1369.12 118.567 1367.15 119.4C1365.22 120.233 1363.1 120.65 1360.8 120.65C1357.83 120.65 1355.43 120.117 1353.6 119.05C1351.77 117.983 1350.27 116.55 1349.1 114.75L1351.2 113.1C1352.23 114.733 1353.6 115.95 1355.3 116.75C1357.03 117.55 1358.87 117.95 1360.8 117.95C1362.5 117.95 1364.05 117.633 1365.45 117C1366.88 116.4 1368.02 115.483 1368.85 114.25C1369.72 113.017 1370.15 111.467 1370.15 109.6V104.45C1369.15 106.083 1367.78 107.4 1366.05 108.4C1364.32 109.367 1362.5 109.85 1360.6 109.85ZM1361.55 107C1362.58 107 1363.57 106.817 1364.5 106.45C1365.47 106.083 1366.35 105.6 1367.15 105C1367.95 104.367 1368.62 103.667 1369.15 102.9C1369.68 102.133 1370.02 101.35 1370.15 100.55V92.5C1369.65 91.2333 1368.93 90.1167 1368 89.15C1367.07 88.15 1366 87.3833 1364.8 86.85C1363.63 86.2833 1362.42 86 1361.15 86C1359.68 86 1358.37 86.3167 1357.2 86.95C1356.07 87.55 1355.1 88.3667 1354.3 89.4C1353.53 90.4 1352.93 91.5333 1352.5 92.8C1352.07 94.0667 1351.85 95.3333 1351.85 96.6C1351.85 98 1352.1 99.3333 1352.6 100.6C1353.1 101.833 1353.78 102.95 1354.65 103.95C1355.55 104.917 1356.58 105.667 1357.75 106.2C1358.95 106.733 1360.22 107 1361.55 107Z" fill="#10737A"/>
<path d="M1392.81 86.45C1390.54 86.5167 1388.54 87.15 1386.81 88.35C1385.11 89.55 1383.91 91.2 1383.21 93.3V109.5H1379.81V83.45H1383.01V89.7C1383.91 87.8667 1385.09 86.3833 1386.56 85.25C1388.06 84.1167 1389.64 83.4833 1391.31 83.35C1391.64 83.3167 1391.93 83.3 1392.16 83.3C1392.43 83.3 1392.64 83.3167 1392.81 83.35V86.45Z" fill="#10737A"/>
<path d="M1393.89 102C1393.89 100.367 1394.36 98.9667 1395.29 97.8C1396.22 96.6 1397.51 95.6833 1399.14 95.05C1400.81 94.3833 1402.72 94.05 1404.89 94.05C1406.16 94.05 1407.47 94.15 1408.84 94.35C1410.21 94.55 1411.42 94.85 1412.49 95.25V93.05C1412.49 90.85 1411.84 89.1 1410.54 87.8C1409.24 86.5 1407.44 85.85 1405.14 85.85C1403.74 85.85 1402.36 86.1167 1400.99 86.65C1399.66 87.15 1398.26 87.9 1396.79 88.9L1395.49 86.5C1397.19 85.3333 1398.86 84.4667 1400.49 83.9C1402.12 83.3 1403.79 83 1405.49 83C1408.69 83 1411.22 83.9167 1413.09 85.75C1414.96 87.5833 1415.89 90.1167 1415.89 93.35V105.4C1415.89 105.867 1415.99 106.217 1416.19 106.45C1416.39 106.65 1416.71 106.767 1417.14 106.8V109.5C1416.77 109.533 1416.46 109.567 1416.19 109.6C1415.92 109.633 1415.72 109.633 1415.59 109.6C1414.76 109.567 1414.12 109.3 1413.69 108.8C1413.26 108.3 1413.02 107.767 1412.99 107.2L1412.94 105.3C1411.77 106.8 1410.26 107.967 1408.39 108.8C1406.52 109.6 1404.62 110 1402.69 110C1401.02 110 1399.51 109.65 1398.14 108.95C1396.81 108.217 1395.76 107.25 1394.99 106.05C1394.26 104.817 1393.89 103.467 1393.89 102ZM1411.34 104C1411.71 103.533 1411.99 103.083 1412.19 102.65C1412.39 102.217 1412.49 101.833 1412.49 101.5V97.7C1411.36 97.2667 1410.17 96.9333 1408.94 96.7C1407.74 96.4667 1406.52 96.35 1405.29 96.35C1402.86 96.35 1400.89 96.8333 1399.39 97.8C1397.89 98.7667 1397.14 100.083 1397.14 101.75C1397.14 102.717 1397.39 103.633 1397.89 104.5C1398.39 105.333 1399.12 106.033 1400.09 106.6C1401.06 107.133 1402.19 107.4 1403.49 107.4C1405.12 107.4 1406.64 107.083 1408.04 106.45C1409.47 105.817 1410.57 105 1411.34 104Z" fill="#10737A"/>
<path d="M1435.29 110C1433.12 110 1431.17 109.433 1429.44 108.3C1427.74 107.167 1426.39 105.767 1425.39 104.1V120.15H1421.99V83.45H1425.04V88.5C1426.07 86.8667 1427.45 85.55 1429.19 84.55C1430.92 83.5167 1432.77 83 1434.74 83C1436.54 83 1438.19 83.3833 1439.69 84.15C1441.19 84.8833 1442.49 85.8833 1443.59 87.15C1444.69 88.4167 1445.54 89.8667 1446.14 91.5C1446.77 93.1 1447.09 94.7667 1447.09 96.5C1447.09 98.9333 1446.59 101.183 1445.59 103.25C1444.62 105.283 1443.25 106.917 1441.49 108.15C1439.72 109.383 1437.65 110 1435.29 110ZM1434.34 107C1435.77 107 1437.05 106.717 1438.19 106.15C1439.32 105.55 1440.29 104.75 1441.09 103.75C1441.92 102.75 1442.55 101.633 1442.99 100.4C1443.42 99.1333 1443.64 97.8333 1443.64 96.5C1443.64 95.1 1443.39 93.7667 1442.89 92.5C1442.42 91.2333 1441.74 90.1167 1440.84 89.15C1439.94 88.1833 1438.9 87.4167 1437.74 86.85C1436.57 86.2833 1435.3 86 1433.94 86C1433.07 86 1432.17 86.1667 1431.24 86.5C1430.3 86.8333 1429.4 87.3167 1428.54 87.95C1427.7 88.55 1427 89.2333 1426.44 90C1425.87 90.7667 1425.52 91.5833 1425.39 92.45V100.45C1425.92 101.683 1426.64 102.8 1427.54 103.8C1428.44 104.767 1429.47 105.55 1430.64 106.15C1431.84 106.717 1433.07 107 1434.34 107Z" fill="#10737A"/>
<path d="M1473.5 109.5H1470.1V94.95C1470.1 92.0167 1469.58 89.8167 1468.55 88.35C1467.51 86.85 1466.03 86.1 1464.1 86.1C1462.83 86.1 1461.56 86.4333 1460.3 87.1C1459.06 87.7333 1457.96 88.6167 1457 89.75C1456.06 90.85 1455.4 92.1167 1455 93.55V109.5H1451.6V73H1455V89.35C1456.03 87.4167 1457.46 85.8833 1459.3 84.75C1461.16 83.5833 1463.15 83 1465.25 83C1466.75 83 1468.01 83.2667 1469.05 83.8C1470.11 84.3333 1470.96 85.1167 1471.6 86.15C1472.26 87.15 1472.75 88.3333 1473.05 89.7C1473.35 91.0333 1473.5 92.55 1473.5 94.25V109.5Z" fill="#10737A"/>
<path d="M1490.75 110C1488.88 110 1487.15 109.65 1485.55 108.95C1483.95 108.217 1482.56 107.233 1481.4 106C1480.23 104.733 1479.31 103.283 1478.65 101.65C1478.01 100.017 1477.7 98.2667 1477.7 96.4C1477.7 93.9667 1478.25 91.7333 1479.35 89.7C1480.48 87.6667 1482.03 86.05 1484 84.85C1485.96 83.6167 1488.2 83 1490.7 83C1493.26 83 1495.5 83.6167 1497.4 84.85C1499.33 86.0833 1500.85 87.7167 1501.95 89.75C1503.05 91.75 1503.6 93.95 1503.6 96.35C1503.6 96.6167 1503.6 96.8833 1503.6 97.15C1503.6 97.3833 1503.58 97.5667 1503.55 97.7H1481.25C1481.41 99.5667 1481.93 101.233 1482.8 102.7C1483.7 104.133 1484.85 105.283 1486.25 106.15C1487.68 106.983 1489.23 107.4 1490.9 107.4C1492.6 107.4 1494.2 106.967 1495.7 106.1C1497.23 105.233 1498.3 104.1 1498.9 102.7L1501.85 103.5C1501.31 104.733 1500.5 105.85 1499.4 106.85C1498.3 107.85 1497 108.633 1495.5 109.2C1494.03 109.733 1492.45 110 1490.75 110ZM1481.15 95.25H1500.4C1500.26 93.35 1499.75 91.6833 1498.85 90.25C1497.98 88.8167 1496.83 87.7 1495.4 86.9C1494 86.0667 1492.45 85.65 1490.75 85.65C1489.05 85.65 1487.5 86.0667 1486.1 86.9C1484.7 87.7 1483.55 88.8333 1482.65 90.3C1481.78 91.7333 1481.28 93.3833 1481.15 95.25Z" fill="#10737A"/>
<path d="M1520.59 86.45C1518.33 86.5167 1516.33 87.15 1514.59 88.35C1512.89 89.55 1511.69 91.2 1510.99 93.3V109.5H1507.59V83.45H1510.79V89.7C1511.69 87.8667 1512.88 86.3833 1514.34 85.25C1515.84 84.1167 1517.43 83.4833 1519.09 83.35C1519.43 83.3167 1519.71 83.3 1519.94 83.3C1520.21 83.3 1520.43 83.3167 1520.59 83.35V86.45Z" fill="#10737A"/>
</svg>
